<svg width="18" height="18" viewBox="0 0 18 18" fill="none" xmlns="http://www.w3.org/2000/svg">
<path fill-rule="evenodd" clip-rule="evenodd" d="M3.27247 14.7276C2.06332 13.5184 2.06332 11.5526 3.27247 10.3435L6.1009 7.51506L4.75739 6.17156L1.92897 8.99999C-0.0226482 10.9516 -0.0226482 14.1194 1.92897 16.0711C3.88058 18.0227 7.04842 18.0227 9.00003 16.0711L11.8285 13.2426L10.485 11.8991L7.65653 14.7276C6.44738 15.9367 4.48162 15.9367 3.27247 14.7276ZM6.87871 12.5355L12.5356 6.87867L11.1214 5.46445L5.4645 11.1213L6.87871 12.5355ZM9.00003 1.92892L6.17161 4.75735L7.51511 6.10085L10.3435 3.27242C11.5527 2.06327 13.5184 2.06327 14.7276 3.27242C15.9368 4.48158 15.9368 6.44733 14.7276 7.65649L11.8992 10.4849L13.2427 11.8284L16.0711 8.99999C18.0227 7.04837 18.0227 3.88054 16.0711 1.92892C14.1195 -0.0226938 10.9516 -0.0226939 9.00003 1.92892Z" fill="black"/>
</svg>
